<?xml version="1.0" encoding="utf-8" ?>
<!-- Generator: Assembly 1.0 - http://assemblyapp.co -->
<svg version="1.1" xmlns="http://www.w3.org/2000/svg" xmlns:xlink="http://www.w3.org/1999/xlink" width="300" height="300" viewBox="0 0 300 300">
	<rect x="0" y="0" width="300" height="300" fill="#ffffff" />
	<g id="widget" transform="matrix(1,0,0,1,150,150)">
		<path d="M-146.12,-55.5332 L145.871,-55.5332 L145.871,64.5012 L-146.12,64.5012 Z" fill="#d3d7e0" fill-opacity="1" />
		<path d="M-104.025,-39.627 L-104.025,-24.116 L-104.105,-24.116 L-108.73,-39.627 L-113.994,-39.627 L-113.994,-11.7151 L-109.009,-11.7151 L-109.009,-27.6648 L-108.93,-27.6648 L-104.025,-11.7151 L-99.0408,-11.7151 L-99.0408,-39.627 Z M-104.743,-37.7131 L-105.859,-37.7131 L-105.859,-32.5294 L-104.743,-28.7414 Z M-114.711,-37.7131 L-115.828,-37.7131 L-115.828,-9.80118 L-110.844,-9.80118 L-110.844,-10.9177 L-114.711,-10.9177 Z M-108.252,-22.9597 L-108.252,-17.5766 L-105.859,-9.80118 L-100.875,-9.80118 L-100.875,-10.9177 L-104.583,-10.9177 Z" fill="#000000" fill-opacity="1" />
		<path d="M-89.657,-15.7424 L-89.657,-24.7939 L-84.6329,-24.7939 L-84.6329,-28.7813 L-89.657,-28.7813 L-89.657,-35.5998 L-82.5993,-35.5998 L-82.5993,-39.627 L-94.6413,-39.627 L-94.6413,-11.7151 L-82.0411,-11.7151 L-82.0411,-15.7424 Z M-95.3989,-37.7131 L-96.5154,-37.7131 L-96.5154,-9.80118 L-83.9152,-9.80118 L-83.9152,-10.9575 L-95.3989,-10.9575 Z M-86.4671,-22.9198 L-86.4671,-24.0363 L-88.9393,-24.0363 L-88.9393,-22.9198 Z M-84.4734,-33.7257 L-84.4734,-34.882 L-88.9393,-34.882 L-88.9393,-33.7257 Z" fill="#000000" fill-opacity="1" />
		<path d="M-74.2523,-15.7424 L-74.2523,-24.7939 L-69.2282,-24.7939 L-69.2282,-28.7813 L-74.2523,-28.7813 L-74.2523,-35.5998 L-67.1946,-35.5998 L-67.1946,-39.627 L-79.2366,-39.627 L-79.2366,-11.7151 L-66.6364,-11.7151 L-66.6364,-15.7424 Z M-79.9942,-37.7131 L-81.1107,-37.7131 L-81.1107,-9.80118 L-68.5105,-9.80118 L-68.5105,-10.9575 L-79.9942,-10.9575 Z M-71.0624,-22.9198 L-71.0624,-24.0363 L-73.5346,-24.0363 L-73.5346,-22.9198 Z M-69.0687,-33.7257 L-69.0687,-34.882 L-73.5346,-34.882 L-73.5346,-33.7257 Z" fill="#000000" fill-opacity="1" />
		<path d="M-49.0386,-34.9618 C-49.6766,-37.6732 -52.0291,-39.627 -54.8602,-39.627 L-63.8319,-39.627 L-63.8319,-11.7151 L-54.8602,-11.7151 C-50.5538,-11.7151 -48.6797,-15.4234 -48.6797,-19.69 L-48.6797,-31.6522 C-48.6797,-32.7687 -48.7993,-33.925 -49.0386,-34.9618 Z M-53.3849,-19.69 C-53.3849,-17.457 -53.8633,-15.7424 -55.8969,-15.7424 L-58.8476,-15.7424 L-58.8476,-35.5998 L-55.8969,-35.5998 C-53.8633,-35.5998 -53.3849,-33.8852 -53.3849,-31.6522 Z M-58.8476,-10.9575 L-64.5895,-10.9575 L-64.5895,-37.7131 L-65.706,-37.7131 L-65.706,-9.80118 L-56.7343,-9.80118 C-55.2589,-9.80118 -53.9032,-10.3594 -52.8665,-11.2765 C-53.5045,-11.0772 -54.1823,-10.9575 -54.8602,-10.9575 Z M-55.8969,-34.882 L-58.1299,-34.882 L-58.1299,-33.7257 L-57.7311,-33.7257 C-55.7374,-33.7257 -55.2589,-32.0111 -55.2589,-29.7383 L-55.2589,-17.8159 C-55.2589,-17.3374 -55.2988,-16.8988 -55.3387,-16.4602 C-54.6608,-16.6994 -54.1425,-17.4171 -54.1425,-19.6501 L-54.1425,-31.6123 C-54.1425,-34.4434 -54.9399,-34.882 -55.8969,-34.882 Z" fill="#000000" fill-opacity="1" />
		<path d="M-27.2407,-11.7151 L-22.2564,-11.7151 L-27.9983,-39.627 L-32.9826,-39.627 L-38.7245,-11.7151 L-34.0193,-11.7151 L-33.0623,-18.2146 L-28.2376,-18.2146 Z M-32.225,-22.202 L-30.6699,-32.2105 L-30.5503,-32.2105 L-29.035,-22.202 Z M-39.6416,-10.9575 L-33.9396,-38.6302 L-34.8567,-37.753 L-40.5587,-9.84105 L-35.8934,-9.84105 L-34.7769,-10.9575 Z M-27.9186,-10.9575 L-28.8357,-17.4171 L-32.4243,-17.4171 L-32.5838,-16.3007 L-30.0718,-16.3007 L-29.1148,-9.84105 L-24.1305,-9.84105 L-23.014,-10.9575 Z M-31.3477,-23.159 L-31.3079,-22.8799 L-29.9123,-22.8799 L-30.63,-27.6648 Z" fill="#000000" fill-opacity="1" />
		<path d="M-12.979,-39.627 L-12.979,-35.6396 L-7.87515,-35.6396 L-7.87515,-11.7151 L-2.89088,-11.7151 L-2.89088,-35.6396 L2.25289,-35.6396 L2.25289,-39.627 Z M-8.59288,-34.882 L-13.7366,-34.882 L-13.7366,-37.753 L-14.8531,-37.753 L-14.8531,-33.7655 L-9.74923,-33.7655 L-9.74923,-9.84105 L-4.76496,-9.84105 L-4.76496,-10.9575 L-8.59288,-10.9575 Z M-2.13327,-33.7655 L0.378805,-33.7655 L0.378805,-34.882 L-2.13327,-34.882 L-2.13327,-33.7655 Z" fill="#000000" fill-opacity="1" />
		<path d="M14.7468,-39.627 L14.7468,-17.6165 C14.7468,-16.819 13.9493,-15.3437 12.5138,-15.3437 C10.7594,-15.3437 10.0416,-16.819 10.0416,-17.6165 L10.0416,-39.627 L5.05737,-39.627 L5.05737,-17.5766 C5.05737,-14.7854 7.01121,-11.3563 12.5138,-11.3563 C17.4981,-11.3563 19.7311,-14.7854 19.7311,-17.5766 L19.7311,-39.627 Z M14.0291,-17.5766 L14.0291,-37.7131 L12.9126,-37.7131 L12.9126,-16.1013 C13.6303,-16.3405 14.0291,-17.1779 14.0291,-17.5766 Z M4.29976,-37.7131 L3.18329,-37.7131 L3.18329,-15.7026 C3.18329,-12.8316 5.13712,-9.44231 10.6796,-9.44231 C12.8328,-9.44231 14.5075,-10.1202 15.6639,-11.0772 C14.7468,-10.7582 13.7101,-10.5588 12.5138,-10.5588 C6.81184,-10.5588 4.29976,-14.1076 4.29976,-17.5766 Z" fill="#000000" fill-opacity="1" />
		<path d="M34.0592,-39.627 L34.0592,-24.116 L33.9794,-24.116 L29.354,-39.627 L24.0906,-39.627 L24.0906,-11.7151 L29.0749,-11.7151 L29.0749,-27.6648 L29.1547,-27.6648 L34.0592,-11.7151 L39.0434,-11.7151 L39.0434,-39.627 Z M33.3414,-37.7131 L32.225,-37.7131 L32.225,-32.5294 L33.3414,-28.7414 Z M23.3729,-37.7131 L22.2564,-37.7131 L22.2564,-9.80118 L27.2407,-9.80118 L27.2407,-10.9177 L23.3729,-10.9177 Z M29.8325,-22.9597 L29.8325,-17.5766 L32.225,-9.80118 L37.2092,-9.80118 L37.2092,-10.9177 L33.5009,-10.9177 Z" fill="#000000" fill-opacity="1" />
		<path d="M48.4272,-15.7424 L48.4272,-24.7939 L53.4513,-24.7939 L53.4513,-28.7813 L48.4272,-28.7813 L48.4272,-35.5998 L55.4849,-35.5998 L55.4849,-39.627 L43.4429,-39.627 L43.4429,-11.7151 L56.0431,-11.7151 L56.0431,-15.7424 Z M42.6853,-37.7131 L41.5688,-37.7131 L41.5688,-9.80118 L54.169,-9.80118 L54.169,-10.9575 L42.6853,-10.9575 Z M51.6171,-22.9198 L51.6171,-24.0363 L49.1449,-24.0363 L49.1449,-22.9198 Z M53.6108,-33.7257 L53.6108,-34.882 L49.1449,-34.882 L49.1449,-33.7257 Z" fill="#000000" fill-opacity="1" />
		<path d="M75.2492,-39.627 L75.2492,-17.6165 C75.2492,-16.819 74.4517,-15.3437 73.0162,-15.3437 C71.2618,-15.3437 70.544,-16.819 70.544,-17.6165 L70.544,-39.627 L65.5598,-39.627 L65.5598,-17.5766 C65.5598,-14.7854 67.5136,-11.3563 73.0162,-11.3563 C78.0005,-11.3563 80.2335,-14.7854 80.2335,-17.5766 L80.2335,-39.627 Z M74.5315,-17.5766 L74.5315,-37.7131 L73.415,-37.7131 L73.415,-16.1013 C74.1327,-16.3405 74.5315,-17.1779 74.5315,-17.5766 Z M64.8022,-37.7131 L63.6857,-37.7131 L63.6857,-15.7026 C63.6857,-12.8316 65.6395,-9.44231 71.182,-9.44231 C73.3352,-9.44231 75.0099,-10.1202 76.1663,-11.0772 C75.2492,-10.7582 74.2125,-10.5588 73.0162,-10.5588 C67.3142,-10.5588 64.8022,-14.1076 64.8022,-17.5766 Z" fill="#000000" fill-opacity="1" />
		<path d="M92.4084,-39.627 L84.6329,-39.627 L84.6329,-11.7151 L89.6172,-11.7151 L89.6172,-22.9597 C89.9362,-22.9198 91.9697,-22.9198 92.2887,-22.9198 C95.9572,-22.9198 99.4661,-25.8705 99.4661,-31.6522 C99.4661,-36.1181 97.1933,-39.627 92.4084,-39.627 Z M90.614,-27.1863 L89.6172,-27.1863 L89.6172,-35.5998 L92.2489,-35.5998 C94.2027,-35.5998 94.7211,-33.8852 94.7211,-31.6522 C94.7211,-27.5452 93.804,-27.1863 90.614,-27.1863 Z M83.8753,-37.7131 L82.7588,-37.7131 L82.7588,-9.80118 L87.7431,-9.80118 L87.7431,-10.9575 L83.8753,-10.9575 Z M92.2489,-34.882 L90.3349,-34.882 L90.3748,-33.7257 C92.3685,-33.7257 92.847,-31.9712 92.847,-29.7383 C92.847,-29.0604 92.847,-28.5022 92.7672,-28.0635 C93.7242,-28.3427 93.9635,-29.18 93.9635,-31.6123 C93.9635,-34.4434 93.1261,-34.882 92.2489,-34.882 Z M90.3349,-22.1622 L90.3349,-21.0457 C91.9299,-21.0457 93.4451,-21.5242 94.7211,-22.5609 C93.2058,-22.1223 93.0065,-22.1622 90.3349,-22.1622 Z" fill="#000000" fill-opacity="1" />
		<path d="M106.059,-11.7151 L111.043,-11.7151 L111.043,-16.6994 L106.059,-16.6994 Z M108.531,-40.1055 C104.304,-40.1055 101.314,-37.5935 101.314,-33.8054 L101.314,-31.9313 L106.298,-31.9313 L106.298,-33.0478 C106.298,-35.0016 107.335,-36.1181 108.531,-36.1181 C109.807,-36.1181 110.804,-35.201 110.804,-33.925 C110.804,-30.6952 106.059,-29.18 106.059,-22.5609 L106.059,-19.8096 L111.043,-19.8096 L111.043,-23.5179 C111.043,-28.1034 115.828,-28.5819 115.828,-33.8054 C115.828,-37.6333 112.797,-40.1055 108.531,-40.1055 Z" fill="#000000" fill-opacity="1" />
		<path d="M-138.451,37.099 L-138.451,20.6997 L-141.868,20.6997 L-141.868,39.8322 L-133.969,39.8322 L-133.969,37.099 Z" fill="#000000" fill-opacity="1" />
		<path d="M-123.719,23.4329 L-123.719,20.6997 L-131.973,20.6997 L-131.973,39.8322 L-123.336,39.8322 L-123.336,37.099 L-128.557,37.099 L-128.557,30.8673 L-125.086,30.8673 L-125.086,28.1341 L-128.557,28.1341 L-128.557,23.4329 Z" fill="#000000" fill-opacity="1" />
		<path d="M-114.098,39.8322 L-110.682,39.8322 L-114.617,20.6997 L-118.034,20.6997 L-121.97,39.8322 L-118.745,39.8322 L-118.089,35.3771 L-114.781,35.3771 Z M-117.515,32.6165 L-116.449,25.7562 L-116.367,25.7562 L-115.328,32.6165 Z" fill="#000000" fill-opacity="1" />
		<path d="M-97.0428,20.6997 L-100.678,20.6997 L-103.165,34.8578 L-103.22,34.8578 L-105.652,20.6997 L-109.315,20.6997 L-105.078,39.8322 L-101.443,39.8322 Z" fill="#000000" fill-opacity="1" />
		<path d="M-86.7932,23.4329 L-86.7932,20.6997 L-95.0475,20.6997 L-95.0475,39.8322 L-86.4106,39.8322 L-86.4106,37.099 L-91.631,37.099 L-91.631,30.8673 L-88.1598,30.8673 L-88.1598,28.1341 L-91.631,28.1341 L-91.631,23.4329 Z" fill="#000000" fill-opacity="1" />
		<path d="M-72.6898,32.3979 L-68.6994,20.6997 L-72.0612,20.6997 L-74.2751,29.938 L-74.3298,29.938 L-76.653,20.6997 L-79.9875,20.6997 L-75.997,32.3979 L-75.997,39.8322 L-72.6898,39.8322 Z" fill="#000000" fill-opacity="1" />
		<path d="M-61.7297,20.4537 C-65.5015,20.4537 -66.8408,22.7496 -66.8408,24.7175 L-66.8408,35.7597 C-66.8408,37.7276 -65.5015,40.0782 -61.7297,40.0782 C-58.3131,40.0782 -56.7825,37.7276 -56.7825,35.7597 L-56.7825,24.7175 C-56.7825,22.7496 -58.3131,20.4537 -61.7297,20.4537 Z M-60.1991,35.7051 C-60.1991,36.279 -60.7457,37.345 -61.7297,37.345 C-62.9323,37.345 -63.4242,36.3337 -63.4242,35.7051 L-63.4242,24.6902 C-63.4242,24.1709 -62.9323,23.1323 -61.7297,23.1323 C-60.7457,23.1323 -60.1991,24.1709 -60.1991,24.7449 Z" fill="#000000" fill-opacity="1" />
		<path d="M-47.6263,20.6997 L-47.6263,35.7871 C-47.6263,36.361 -48.1729,37.345 -49.1569,37.345 C-50.3595,37.345 -50.8788,36.361 -50.8788,35.7871 L-50.8788,20.6997 L-54.2953,20.6997 L-54.2953,35.8144 C-54.2953,37.755 -52.9014,40.0782 -49.1569,40.0782 C-45.7403,40.0782 -44.2097,37.755 -44.2097,35.8144 L-44.2097,20.6997 Z" fill="#000000" fill-opacity="1" />
		<path d="M-30.2977,39.8322 L-33.9055,31.6599 C-32.2656,30.8399 -31.0357,29.0087 -31.0357,26.1661 C-31.0357,23.1049 -32.5936,20.6997 -35.8734,20.6997 L-41.5859,20.6997 L-41.5859,39.8322 L-38.1967,39.8322 L-38.1967,32.1246 C-38.06,32.1246 -37.568,32.1246 -37.1034,32.1246 L-33.8509,39.8322 Z M-38.1967,23.4329 L-35.9828,23.4329 C-34.6435,23.4329 -34.2882,24.6355 -34.2882,26.1661 C-34.2882,28.954 -34.8895,29.2273 -37.1034,29.2273 L-38.1967,29.2273 Z" fill="#000000" fill-opacity="1" />
		<path d="M-16.3583,29.5007 C-14.937,28.9267 -14.1991,27.1228 -14.1991,25.5102 C-14.1991,22.4763 -16.003,20.6997 -19.1735,20.6997 L-23.6013,20.6997 L-23.6013,39.8322 L-18.5175,39.8322 C-15.2377,39.8322 -13.4338,37.4543 -13.4338,34.3658 C-13.4338,31.7146 -14.5817,30.266 -16.3583,29.5007 Z M-20.1848,23.4329 L-18.9002,23.4329 C-17.6976,23.4329 -17.1783,24.2529 -17.1783,25.6195 C-17.1783,27.4508 -17.5882,27.9701 -20.0208,27.9701 L-20.1848,27.9701 Z M-20.1848,37.099 L-20.1848,30.8673 L-19.5015,30.8673 C-17.3149,30.8673 -16.6863,32.3159 -16.6863,34.3658 C-16.6863,35.8964 -17.6702,37.099 -19.0368,37.099 Z" fill="#000000" fill-opacity="1" />
		<path d="M-8.02199,20.6997 L-11.4385,20.6997 L-11.4385,39.8322 L-8.02199,39.8322 Z" fill="#000000" fill-opacity="1" />
		<path d="M4.66013,26.2481 L4.66013,24.7449 C4.66013,22.8043 3.1022,20.4537 -0.341652,20.4537 C-4.11349,20.4537 -5.53476,22.8043 -5.53476,24.7449 L-5.53476,35.8144 C-5.53476,37.7276 -4.11349,40.0782 -0.341652,40.0782 C3.1022,40.0782 4.66013,37.7276 4.66013,35.7871 L4.66013,34.2838 L1.21628,34.2838 L1.21628,35.7871 C1.21628,36.361 0.642305,37.345 -0.341652,37.345 C-1.54427,37.345 -2.06358,36.361 -2.06358,35.7871 L-2.06358,24.7449 C-2.06358,24.1709 -1.54427,23.1869 -0.341652,23.1869 C0.642305,23.1869 1.21628,24.1709 1.21628,24.7449 L1.21628,26.2481 Z" fill="#000000" fill-opacity="1" />
		<path d="M13.5977,32.3979 L17.5882,20.6997 L14.2264,20.6997 L12.0125,29.938 L11.9578,29.938 L9.63458,20.6997 L6.30006,20.6997 L10.2906,32.3979 L10.2906,39.8322 L13.5977,39.8322 Z" fill="#000000" fill-opacity="1" />
		<path d="M29.6417,26.2481 L29.6417,24.7449 C29.6417,22.8043 28.0838,20.4537 24.6399,20.4537 C20.8681,20.4537 19.4468,22.8043 19.4468,24.7449 L19.4468,35.8144 C19.4468,37.7276 20.8681,40.0782 24.6399,40.0782 C28.0838,40.0782 29.6417,37.7276 29.6417,35.7871 L29.6417,34.2838 L26.1979,34.2838 L26.1979,35.7871 C26.1979,36.361 25.6239,37.345 24.6399,37.345 C23.4373,37.345 22.918,36.361 22.918,35.7871 L22.918,24.7449 C22.918,24.1709 23.4373,23.1869 24.6399,23.1869 C25.6239,23.1869 26.1979,24.1709 26.1979,24.7449 L26.1979,26.2481 Z" fill="#000000" fill-opacity="1" />
		<path d="M35.3268,37.099 L35.3268,20.6997 L31.9103,20.6997 L31.9103,39.8322 L39.8093,39.8322 L39.8093,37.099 Z" fill="#000000" fill-opacity="1" />
		<path d="M50.0588,23.4329 L50.0588,20.6997 L41.8045,20.6997 L41.8045,39.8322 L50.4415,39.8322 L50.4415,37.099 L45.221,37.099 L45.221,30.8673 L48.6922,30.8673 L48.6922,28.1341 L45.221,28.1341 L45.221,23.4329 Z" fill="#000000" fill-opacity="1" />
		<path d="M72.6352,20.6997 L70.3939,34.8851 L70.3119,34.8851 L68.098,20.6997 L64.7635,20.6997 L62.5223,34.8851 L62.4403,34.8851 L60.2264,20.6997 L56.8645,20.6997 L60.7457,39.8322 L64.0802,39.8322 L66.3488,28.544 L68.6174,39.8322 L71.9519,39.8322 L75.8057,20.6997 Z" fill="#000000" fill-opacity="1" />
		<path d="M81.2175,20.6997 L77.801,20.6997 L77.801,39.8322 L81.2175,39.8322 Z" fill="#000000" fill-opacity="1" />
		<path d="M93.6536,20.6997 L83.2127,20.6997 L83.2127,23.4056 L86.7112,23.4056 L86.7112,39.8322 L90.1278,39.8322 L90.1278,23.4056 L93.6536,23.4056 Z" fill="#000000" fill-opacity="1" />
		<path d="M102.673,20.6997 L102.673,28.1341 L99.0654,28.1341 L99.0654,20.6997 L95.6488,20.6997 L95.6488,39.8322 L99.0654,39.8322 L99.0654,30.8399 L102.673,30.8399 L102.673,39.8322 L106.09,39.8322 L106.09,20.6997 Z" fill="#000000" fill-opacity="1" />
		<path d="M120.439,20.6997 L120.439,35.7871 C120.439,36.361 119.892,37.345 118.909,37.345 C117.706,37.345 117.187,36.361 117.187,35.7871 L117.187,20.6997 L113.77,20.6997 L113.77,35.8144 C113.77,37.755 115.164,40.0782 118.909,40.0782 C122.325,40.0782 123.856,37.755 123.856,35.8144 L123.856,20.6997 Z" fill="#000000" fill-opacity="1" />
		<path d="M136.073,26.0568 L136.073,24.7175 C136.073,22.1757 134.023,20.4537 131.126,20.4537 C128.201,20.4537 126.124,22.121 126.124,24.7175 C126.124,27.3414 126.889,27.9427 128.693,30.0746 L131.536,32.9992 C132.247,33.8191 132.657,34.5844 132.657,35.5957 C132.657,36.7164 131.973,37.345 131.126,37.345 C130.251,37.345 129.595,36.771 129.595,35.5957 L129.595,33.8191 L126.152,33.8191 L126.152,35.8144 C126.152,38.5476 128.365,40.1055 131.126,40.1055 C133.859,40.1055 136.182,38.5749 136.182,35.8144 C136.182,33.5458 135.335,32.5072 133.969,30.9493 L130.552,27.0408 C129.759,26.1388 129.595,25.5102 129.595,24.6902 C129.595,23.8156 130.251,23.1869 131.126,23.1869 C131.946,23.1869 132.657,23.9249 132.657,25.2642 L132.657,26.0568 Z" fill="#000000" fill-opacity="1" />
		<path d="M138.451,20.6997 L138.451,34.2838 L141.868,34.2838 L141.868,20.6997 Z M138.451,39.8322 L141.868,39.8322 L141.868,36.4157 L138.451,36.4157 Z" fill="#000000" fill-opacity="1" />
	</g>
</svg>